<svg width="1080" height="1080" viewBox="0 0 1080 1080" fill="none" xmlns="http://www.w3.org/2000/svg">
<g clip-path="url(#clip0_10_543)">
<path fill-rule="evenodd" clip-rule="evenodd" d="M446.587 115.518C448.42 110.013 454.526 105.794 457.014 105.039C481.429 97.6332 508.719 97.2606 541.253 97.8185C574.876 98.3951 615.529 105.694 625.916 108.368C631.481 109.8 636.286 116.301 636.27 121.562C636.257 125.72 633.974 215.549 633.974 215.549L614.153 195.319C614.153 195.319 614.121 141.198 614.153 130.677C614.162 127.771 611.785 125.976 608.972 125.395C602.479 124.053 567.454 118.245 539.893 117.54C511.413 116.812 487.72 118.466 475.088 121.532C469.729 122.833 466.058 128.844 466.521 133.177C467.65 143.776 470.189 181.906 470.71 189.797L470.868 189.895C474.904 192.397 478.622 195.317 481.75 198.328C490.186 206.45 495.335 217.439 496.21 229.19C497.084 240.941 493.623 252.628 486.489 262.012C479.355 271.396 469.05 277.816 457.548 280.044C446.046 282.271 434.156 280.149 424.156 274.084C414.156 268.018 406.749 258.436 403.354 247.173C399.959 235.91 400.814 223.758 405.757 213.045C407.524 209.216 409.768 205.667 412.414 202.472C412.659 202.177 412.907 201.884 413.159 201.595C404.927 183.021 390.728 151.283 387.032 144.934C385.57 142.423 382.612 142.076 379.891 142.998C373.611 145.124 340.458 157.828 316.325 171.16C291.389 184.936 271.785 198.346 262.439 207.379C258.474 211.212 258.348 218.254 260.938 221.758C266.253 228.95 282.228 252.362 289.855 263.577C290.515 263.489 291.177 263.415 291.841 263.354C295.836 262.992 299.892 263.139 303.914 263.814C315.463 265.754 325.918 271.916 333.274 281.121C340.631 290.326 344.373 301.926 343.784 313.699C343.194 325.472 338.314 336.59 330.079 344.923C321.843 353.255 310.832 358.217 299.153 358.858C287.475 359.498 275.951 355.772 266.79 348.393C257.628 341.014 251.473 330.502 249.504 318.869C248.813 314.791 248.654 310.675 249.007 306.621C249.034 306.316 249.064 306.011 249.096 305.706C232.624 293.133 209.235 275.445 203.503 271.959C200.995 270.435 198.233 271.489 196.299 273.543C191.834 278.284 168.985 304.605 154.348 327.336C139.224 350.825 128.596 371.546 124.819 383.734C123.216 388.905 125.336 394.553 129.218 396.631C136.388 400.47 156.472 410.691 171.337 418.226C171.905 417.78 172.482 417.346 173.07 416.926C176.333 414.593 179.906 412.668 183.717 411.216C194.661 407.048 206.797 407.077 217.799 411.296C228.801 415.516 237.896 423.63 243.342 434.085C248.788 444.539 250.201 456.598 247.312 467.952C244.422 479.306 237.432 489.156 227.682 495.615C217.931 502.074 206.106 504.688 194.47 502.956C182.835 501.225 172.208 495.269 164.626 486.23C161.967 483.061 159.748 479.591 158.002 475.915C157.879 475.655 157.758 475.394 157.639 475.132C145.851 473.809 114.213 470.316 105.625 469.947C102.692 469.821 100.782 472.077 100.078 474.809C98.4542 481.116 91.1379 515.195 89.2833 542.167C87.3668 570.037 88.0531 593.316 90.6243 605.814C91.7152 611.117 96.297 615.04 100.699 614.988C109.175 614.888 133.088 613.06 149.748 611.711C150.105 610.897 150.486 610.093 150.889 609.299C152.706 605.723 154.987 602.366 157.697 599.319C165.481 590.569 176.259 584.991 187.966 583.655C199.674 582.318 211.488 585.317 221.145 592.076C230.802 598.835 237.624 608.879 240.302 620.285C242.981 631.69 241.329 643.654 235.662 653.886C229.995 664.117 220.712 671.895 209.591 675.731C198.471 679.567 186.294 679.19 175.395 674.673C171.574 673.09 168.004 671.036 164.758 668.581C164.649 668.499 164.54 668.416 164.432 668.332C164.344 668.265 164.257 668.198 164.17 668.13C151.774 671.748 123.808 680.119 116.605 684.043C114.028 685.447 113.554 688.366 114.36 691.069C116.221 697.31 127.526 730.281 139.846 754.347C152.576 779.214 165.385 800.848 174.033 810.231C177.702 814.211 183.651 815.21 187.396 812.896C194.544 808.478 212.154 796.581 224.46 788.208C224.379 787.535 224.312 786.86 224.259 786.183C223.949 782.183 224.149 778.129 224.877 774.116C226.968 762.594 233.267 752.221 242.567 744.986C251.868 737.75 263.516 734.161 275.28 734.905C287.045 735.649 298.097 740.674 306.322 749.018C314.546 757.362 319.363 768.438 319.85 780.123C320.337 791.809 316.46 803.283 308.962 812.347C301.464 821.411 290.871 827.427 279.214 829.244C275.127 829.881 271.009 829.986 266.96 829.58C265.464 829.43 263.977 829.21 262.504 828.921C257.282 836.252 236.773 865.169 232.333 873.292C230.925 875.867 232.106 878.578 234.246 880.415C239.188 884.657 266.535 906.268 289.917 919.841C314.077 933.866 336.555 945.129 348.904 948.341C354.144 949.703 359.033 946.94 361.584 943.352C367.39 935.187 382.457 907.957 388.918 896.162C388.242 895.364 387.592 894.543 386.97 893.7C384.587 890.473 382.608 886.929 381.098 883.14C376.763 872.262 376.606 860.127 380.657 849.062C384.709 837.996 392.683 828.778 403.053 823.174C413.423 817.569 425.459 815.971 436.856 818.687C448.252 821.403 458.208 828.241 464.815 837.892C471.422 847.543 474.217 859.327 472.663 870.988C471.109 882.648 465.316 893.365 456.394 901.084C453.266 903.791 449.831 906.063 446.182 907.864C445.272 908.313 444.349 908.733 443.415 909.124C440.362 922.003 430.621 963.691 430.266 972.644C430.15 975.576 432.412 977.48 435.147 978.174C441.459 979.777 475.562 986.98 502.54 988.745C530.416 990.569 555.558 990.667 568.048 988.055C573.347 986.946 576.498 982.298 577.189 977.949C578.609 969.005 575.55 936.211 573.596 917.424C572.607 916.985 571.632 916.513 570.673 916.009C566.799 913.973 563.186 911.41 559.945 908.367C551.16 900.118 545.727 888.918 544.688 876.912C543.649 864.906 547.076 852.938 554.313 843.302C561.549 833.666 572.087 827.039 583.907 824.69C595.727 822.342 607.998 824.437 618.369 830.574C628.74 836.712 636.482 846.46 640.111 857.951C643.741 869.443 643.003 881.869 638.039 892.85C636.207 896.901 633.849 900.65 631.047 904.013C630.764 904.354 630.475 904.691 630.182 905.023C634.941 918.712 648.404 956.974 652.777 964.488C654.254 967.024 657.184 967.416 659.864 966.534C666.05 964.497 698.588 953.101 722.296 940.108C726.881 937.595 731.24 935.244 735.358 933.023C753.242 923.375 766.566 916.188 773.991 908.946C777.867 905.166 778.755 904.213 776.727 900.306C770.824 888.93 737.932 836.688 737.932 836.688L767.308 845.989C767.308 845.989 798.931 890.225 802.573 902.786C804.199 908.395 800.987 912.424 798.743 914.882C785.404 929.488 770.15 937.651 750.625 948.099C745.409 950.891 739.888 953.845 734.018 957.128C705.239 973.226 664.372 986.942 654.207 989.74C648.761 991.239 641.37 987.945 638.697 983.352C637.18 980.747 620.571 937.424 611.305 913.148L604.481 897.69L604.425 897.564L603.433 895.318L603.441 895.315C608.289 893.173 612.302 889.539 614.913 884.973C615.301 884.295 615.658 883.597 615.983 882.88C618.491 877.33 618.864 871.049 617.03 865.242C615.196 859.434 611.283 854.507 606.041 851.405C600.8 848.303 594.598 847.244 588.624 848.431C582.651 849.618 577.325 852.968 573.667 857.838C570.01 862.708 568.278 868.756 568.803 874.824C569.328 880.892 572.074 886.553 576.514 890.722C577.088 891.261 577.685 891.77 578.302 892.248C582.463 895.47 587.563 897.294 592.865 897.418L592.808 899.872L592.804 900.01L592.655 906.399C594.319 925.298 599.318 986.105 595.702 996.033C593.702 1001.52 587.612 1004.73 585.147 1005.4C560.951 1011.94 532.333 1010.41 500.478 1008.6C467.556 1006.74 427.994 997.812 417.916 994.716C412.517 993.057 408.049 986.31 408.26 981C408.394 977.595 420.194 919.914 424.646 898.251L424.793 891.815L424.81 891.077L424.853 889.225C430.493 889.302 435.991 887.396 440.394 883.854C440.621 883.671 440.846 883.484 441.067 883.292C445.577 879.391 448.504 873.975 449.29 868.081C450.075 862.188 448.663 856.232 445.323 851.355C441.984 846.477 436.952 843.021 431.192 841.648C425.433 840.276 419.35 841.083 414.109 843.916C408.868 846.749 404.837 851.407 402.79 857C400.742 862.592 400.822 868.725 403.012 874.223C403.141 874.546 403.276 874.865 403.418 875.181C405.662 880.169 409.551 884.234 414.45 886.691C414.52 886.727 414.591 886.762 414.662 886.796L414.663 886.797L413.588 888.967L405.007 906.287L404.15 908.019C404.097 907.993 404.044 907.967 403.991 907.941C395.671 924.664 377.086 961.157 370.13 967.78C365.9 971.807 359.018 971.974 356.513 971.476C331.93 966.582 306.974 952.492 279.242 936.713C250.582 920.406 219.11 894.828 211.458 887.574C207.359 883.688 206.356 875.659 208.905 870.995C210.722 867.671 248.898 816.166 256.375 806.087L257.331 804.634L257.737 804.016L258.754 802.469C263.496 805.524 269.168 806.822 274.779 806.152C274.836 806.146 274.893 806.139 274.95 806.131C275.023 806.122 275.095 806.113 275.168 806.103C275.328 806.081 275.488 806.058 275.648 806.033C281.54 805.115 286.893 802.074 290.683 797.493C294.473 792.912 296.432 787.113 296.186 781.207C295.94 775.301 293.505 769.703 289.349 765.486C285.192 761.269 279.606 758.73 273.66 758.353C267.715 757.977 261.828 759.792 257.127 763.448C252.427 767.105 249.243 772.348 248.186 778.171C248.124 778.513 248.07 778.855 248.023 779.198C247.282 784.617 248.424 790.125 251.276 794.806L251.324 794.885L251.355 794.936L251.4 795.008L251.401 795.008L249.339 796.279L242.311 800.608C227.279 811.204 191.052 836.209 181.365 838.063C175.629 839.16 169.751 835.578 167.914 833.803C149.888 816.387 136.525 791.035 121.74 762.76C106.46 733.539 93.8326 695 91.3224 684.76C89.9776 679.274 93.4789 671.978 98.1456 669.436C101.21 667.766 149.952 649.797 166.361 643.764L169.522 642.269L170.19 641.953L171.864 641.161C174.322 646.239 178.49 650.299 183.629 652.648C183.895 652.77 184.163 652.887 184.433 652.999C189.942 655.282 196.096 655.472 201.716 653.533C207.336 651.595 212.028 647.663 214.892 642.493C217.756 637.322 218.591 631.275 217.238 625.511C215.884 619.746 212.436 614.67 207.555 611.254C202.675 607.838 196.704 606.322 190.787 606.998C184.87 607.673 179.423 610.492 175.489 614.914C175.258 615.174 175.033 615.438 174.815 615.706C171.361 619.947 169.469 625.245 169.468 630.726C169.468 630.805 169.468 630.884 169.469 630.963L169.469 630.964L167.047 630.975L161.936 630.999C143.946 632.682 93.0245 637.046 83.3705 633.492C77.8896 631.475 73.8843 625.323 73.2258 622.855C66.7627 598.638 67.5189 571.888 69.4318 540.039C71.4089 507.123 80.4636 467.591 83.5933 457.524C85.27 452.13 92.032 447.685 97.3416 447.913C100.642 448.055 147.453 452.577 167.318 454.504L174.376 454.774L175.115 454.802L176.965 454.873C176.802 460.512 178.624 466.038 182.098 470.495C182.278 470.725 182.462 470.952 182.65 471.177C186.482 475.745 191.853 478.755 197.733 479.63C203.614 480.505 209.591 479.184 214.519 475.92C219.446 472.655 222.979 467.677 224.439 461.939C225.9 456.201 225.186 450.106 222.433 444.822C219.681 439.539 215.084 435.438 209.524 433.305C203.963 431.172 197.83 431.158 192.299 433.265C191.974 433.388 191.653 433.519 191.335 433.656C186.314 435.823 182.19 439.649 179.658 444.509C179.622 444.58 179.585 444.65 179.549 444.722L177.396 443.613L172.143 440.911C156.408 433.539 111.859 412.256 105.112 404.48C101.284 400.068 100.744 392.747 101.357 390.268C107.379 365.937 120.946 342.871 137.986 315.896C155.597 288.017 182.6 257.758 190.198 250.449C194.269 246.533 202.336 245.902 206.877 248.663C209.233 250.096 237.106 271.226 255.978 285.575C256.024 285.501 256.07 285.427 256.117 285.352L273.825 296.665L274.448 297.063L276.009 298.06C273.016 302.842 271.793 308.53 272.535 314.132C272.574 314.422 272.617 314.711 272.666 314.999C273.662 320.879 276.772 326.192 281.403 329.921C286.033 333.65 291.857 335.534 297.759 335.21C303.662 334.886 309.227 332.378 313.389 328.167C317.551 323.955 320.017 318.336 320.315 312.386C320.614 306.436 318.722 300.574 315.004 295.922C311.286 291.269 306.002 288.155 300.165 287.175C299.823 287.117 299.48 287.067 299.136 287.025C293.709 286.355 288.216 287.569 283.574 290.481C283.539 290.503 283.505 290.525 283.471 290.546L283.372 290.609L282.075 288.564L279.612 284.682L279.604 284.691C279.604 284.691 237.394 228.793 234.81 216.606C233.607 210.93 236.741 204.202 238.506 202.293C255.822 183.555 279.176 169.432 307.524 153.459C336.821 136.951 375.584 122.686 385.896 119.739C391.421 118.16 398.855 121.339 401.501 125.885C403.055 128.554 421.003 168.655 430.137 189.117L430.139 189.116L430.756 190.407L439.702 209.138L440.132 210.039C439.704 210.226 439.278 210.43 438.854 210.649C434.653 212.828 430.748 216.558 428.254 220.685C427.809 221.423 427.408 222.173 427.059 222.93C424.561 228.344 424.128 234.486 425.844 240.178C427.56 245.87 431.304 250.713 436.358 253.779C441.412 256.844 447.421 257.917 453.234 256.791C459.047 255.665 464.256 252.42 467.861 247.678C471.467 242.935 473.216 237.029 472.774 231.09C472.455 226.801 471.009 222.713 468.625 219.226C467.707 217.885 466.651 216.632 465.466 215.492C461.202 211.387 455.576 209.02 449.666 208.844L449.568 205.532L449.531 204.261L448.906 183.021C446.927 162.457 443.74 124.071 446.587 115.518Z" fill="black"/>
<path d="M761.478 674.604V331.902H801.979V674.604H761.478ZM859.615 490.791L1026.81 674.604H975.406L806.652 490.791L960.868 331.902H1012.79L859.615 490.791Z" fill="black"/>
<path d="M705.882 674.604H658.63L552.185 530.773H478.972V674.604H438.471V331.902H558.935C591.821 331.902 618.302 341.249 638.38 359.942C658.457 378.288 668.496 402 668.496 431.078C668.496 454.271 662.092 474.349 649.284 491.31C636.476 507.926 618.822 519.523 596.321 526.1L705.882 674.604ZM478.972 368.249V494.426H557.378C579.186 494.426 596.148 488.887 608.264 477.81C620.379 466.387 626.437 450.982 626.437 431.597C626.437 412.558 620.206 397.327 607.745 385.904C595.629 374.134 578.84 368.249 557.378 368.249H478.972Z" fill="black"/>
<path d="M1035.23 742.391H986.109C986.704 748.516 989.129 753.45 993.382 757.192C997.636 760.935 1002.82 762.807 1008.95 762.807C1016.01 762.807 1022.35 760 1027.96 754.385L1033.7 761.02C1026.73 768.251 1018.43 771.866 1008.82 771.866C999.549 771.866 991.723 768.761 985.343 762.552C979.049 756.257 975.901 748.558 975.901 739.456C975.901 730.439 978.963 722.783 985.088 716.488C991.298 710.108 998.826 706.918 1007.67 706.918C1015.75 706.918 1022.47 709.556 1027.83 714.83C1033.28 720.104 1036 726.824 1036 734.99C1036 737.372 1035.75 739.839 1035.23 742.391ZM986.492 733.714H1025.92C1025.83 728.27 1024.05 723.932 1020.56 720.699C1017.07 717.467 1012.69 715.85 1007.42 715.85C1002.23 715.85 997.721 717.509 993.893 720.827C990.065 724.059 987.598 728.355 986.492 733.714Z" fill="black"/>
<path d="M968.431 708.322V716.999H964.731C959.287 716.999 954.651 718.657 950.823 721.975C947.08 725.293 945.208 729.716 945.208 735.245V770.463H935.383V708.322H944.57V717.126C949.164 710.916 955.586 707.812 963.838 707.812C965.454 707.812 966.985 707.982 968.431 708.322Z" fill="black"/>
<path d="M914.544 732.183V770.463H905.357V762.424C900.593 768.719 893.618 771.866 884.43 771.866C877.965 771.866 872.734 770.293 868.736 767.145C864.738 763.913 862.739 759.659 862.739 754.385C862.739 749.111 864.78 744.9 868.863 741.753C872.946 738.606 878.348 737.032 885.068 737.032H904.719V731.673C904.719 726.654 903.358 722.783 900.635 720.061C897.998 717.339 894.341 715.978 889.662 715.978C882.687 715.978 876.647 719.296 871.543 725.931L865.035 720.572C870.565 711.469 878.986 706.918 890.3 706.918C897.786 706.918 903.698 709.13 908.036 713.554C912.375 717.892 914.544 724.102 914.544 732.183ZM904.719 746.602V745.071H886.217C877.285 745.071 872.819 748.005 872.819 753.875C872.819 756.937 874.01 759.362 876.392 761.148C878.859 762.849 881.963 763.7 885.706 763.7C890.895 763.7 895.361 762.041 899.104 758.724C902.847 755.406 904.719 751.365 904.719 746.602Z" fill="black"/>
<path d="M793.225 739.328C793.055 730.481 796.202 722.826 802.667 716.36C809.132 709.895 816.831 706.748 825.763 706.918C831.122 706.918 836.013 708.109 840.437 710.491C844.86 712.873 848.518 716.19 851.41 720.444L844.392 726.058C839.458 719.338 833.291 715.978 825.89 715.978C819.51 715.978 814.151 718.274 809.813 722.868C805.475 727.377 803.305 732.863 803.305 739.328C803.305 745.878 805.475 751.45 809.813 756.044C814.151 760.552 819.51 762.807 825.89 762.807C833.206 762.807 839.331 759.489 844.265 752.854L851.283 758.341C845.158 767.358 836.651 771.866 825.763 771.866C816.746 771.866 809.047 768.719 802.667 762.424C796.372 756.044 793.225 748.345 793.225 739.328Z" fill="black"/>
<path d="M743.9 742.391H694.774C695.37 748.516 697.794 753.45 702.047 757.192C706.301 760.935 711.49 762.807 717.615 762.807C724.675 762.807 731.012 760 736.627 754.385L742.369 761.02C735.393 768.251 727.099 771.866 717.487 771.866C708.215 771.866 700.389 768.761 694.009 762.552C687.714 756.257 684.566 748.558 684.566 739.456C684.566 730.439 687.629 722.783 693.754 716.488C699.963 710.108 707.492 706.918 716.339 706.918C724.42 706.918 731.14 709.556 736.499 714.83C741.943 720.104 744.666 726.824 744.666 734.99C744.666 737.372 744.41 739.839 743.9 742.391ZM695.157 733.714H734.585C734.5 728.27 732.714 723.932 729.226 720.699C725.738 717.467 721.357 715.85 716.083 715.85C710.894 715.85 706.386 717.509 702.558 720.827C698.73 724.059 696.263 728.355 695.157 733.714Z" fill="black"/>
<path d="M668.182 731.417V770.463H658.357V732.566C658.357 727.632 656.953 723.634 654.146 720.572C651.424 717.509 647.681 715.978 642.917 715.978C638.154 715.978 634.241 717.552 631.178 720.699C628.116 723.762 626.585 727.717 626.585 732.566V770.463H616.76V708.322H625.947V714.957C630.795 709.598 637.175 706.918 645.087 706.918C652.232 706.918 657.846 709.173 661.93 713.681C666.098 718.105 668.182 724.017 668.182 731.417Z" fill="black"/>
<path d="M534.413 739.328C534.243 730.481 537.39 722.826 543.855 716.36C550.405 709.895 558.104 706.748 566.951 706.918C575.883 706.748 583.581 709.895 590.046 716.36C596.511 722.826 599.659 730.481 599.489 739.328C599.659 748.09 596.469 755.746 589.919 762.296C583.369 768.761 575.67 771.909 566.823 771.738C557.976 771.909 550.32 768.761 543.855 762.296C537.39 755.746 534.243 748.09 534.413 739.328ZM589.408 739.456C589.408 732.821 587.239 727.249 582.901 722.74C578.647 718.232 573.331 715.978 566.951 715.978C560.571 715.978 555.212 718.232 550.873 722.74C546.62 727.164 544.493 732.736 544.493 739.456C544.493 746.006 546.62 751.535 550.873 756.044C555.212 760.467 560.528 762.679 566.823 762.679C573.118 762.679 578.435 760.425 582.773 755.916C587.197 751.408 589.408 745.921 589.408 739.456Z" fill="black"/>
<path d="M525.47 762.168V770.462C521.301 771.398 517.856 771.866 515.134 771.866C508.499 771.866 503.352 770.164 499.695 766.762C496.037 763.359 494.208 758.34 494.208 751.705V717.126H483.745V708.321H494.208V691.351H504.033V708.321H523.428V717.126H504.033V751.067C504.033 755.32 505.096 758.383 507.223 760.254C509.435 762.04 512.752 762.934 517.176 762.934C519.557 762.934 522.322 762.678 525.47 762.168Z" fill="black"/>
<path d="M427.716 759.744L433.968 753.237C437.2 756.554 440.135 758.979 442.772 760.51C445.494 762.041 448.514 762.807 451.832 762.807C455.32 762.807 458.169 762.041 460.381 760.51C462.593 758.894 463.699 756.725 463.699 754.003C463.699 751.621 462.89 749.792 461.274 748.516C459.743 747.155 456.936 745.666 452.853 744.05L446.855 741.498C441.496 739.286 437.583 736.862 435.116 734.225C432.649 731.588 431.416 728.27 431.416 724.272C431.416 718.998 433.372 714.787 437.286 711.64C441.284 708.492 446.303 706.918 452.342 706.918C460.764 706.918 467.697 710.193 473.141 716.744L467.144 722.868C462.55 718.275 457.446 715.978 451.832 715.978C448.684 715.978 446.175 716.659 444.303 718.02C442.432 719.381 441.496 721.295 441.496 723.762C441.496 725.718 442.177 727.334 443.538 728.61C444.984 729.801 447.664 731.205 451.577 732.821L457.319 735.245C463.273 737.797 467.484 740.477 469.951 743.284C472.503 746.006 473.779 749.451 473.779 753.62C473.779 759.404 471.652 763.913 467.399 767.145C463.231 770.293 458.084 771.866 451.959 771.866C442.007 771.866 433.925 767.826 427.716 759.744Z" fill="black"/>
</g>
<defs>
<clipPath id="clip0_10_543">
<rect width="1080" height="1080" fill="white"/>
</clipPath>
</defs>
</svg>
